#!OML:ASF F:\VICON\USERDATA\INSTALL\rory3\rory3.ASF
:FULLY-SPECIFIED
:DEGREES
337
root -0.472198 17.1862 32.9191 -0.112136 6.01753 4.87599
lowerback 5.12657 -3.41674 -6.9368
upperback 0.954801 -4.88492 2.32251
thorax -1.09398 -2.43513 6.57232
lowerneck -13.9685 -1.3648 -9.58515
upperneck 26.2582 -0.353295 3.17428
head 10.8043 -0.736424 2.72941
rclavicle -3.62782e-014 1.03368e-014
rhumerus -41.1716 -23.3665 -68.384
rradius 20.9471
rwrist 18.0223
rhand -12.9176 19.0453
rfingers 7.12502
rthumb 13.1726 -10.5185
lclavicle -3.62782e-014 1.03368e-014
lhumerus -23.3998 1.84774 80.3809
lradius 37.8484
lwrist -7.33269
lhand -18.4677 23.2518
lfingers 7.12502
lthumb 7.81891 53.0872
rfemur -32.9773 -0.258549 15.2403
rtibia 33.8491
rfoot -6.96554 -9.86345
rtoes -8.76189
lfemur 19.9803 -7.14117 -26.8042
ltibia 16.2724
lfoot -3.16312 -4.61606
ltoes -28.428
338
root -0.491003 17.207 33.1382 -0.272981 6.10964 4.49106
lowerback 5.11138 -3.42802 -6.50759
upperback 0.917077 -4.87435 2.45951
thorax -1.15068 -2.42753 6.47452
lowerneck -13.6259 -1.36889 -9.56403
upperneck 26.1819 -0.340258 2.94731
head 10.7096 -0.754611 2.64219
rclavicle -3.86636e-014 -1.27222e-014
rhumerus -41.4342 -23.8364 -67.7127
rradius 20.6277
rwrist 18.5612
rhand -12.911 18.8214
rfingers 7.12502
rthumb 13.179 -10.742
lclavicle -3.86636e-014 -1.27222e-014
lhumerus -23.7022 2.18644 80.5315
lradius 37.6449
lwrist -7.77997
lhand -17.8794 23.5482
lfingers 7.12502
lthumb 8.38671 53.3617
rfemur -32.3828 -0.727364 15.9001
rtibia 34.2408
rfoot -6.10026 -8.30634
rtoes -10.292
lfemur 18.9457 -7.36996 -26.4103
ltibia 19.1774
lfoot -1.16185 -4.87278
ltoes -28.6092
339
root -0.503177 17.2276 33.3557 -0.425249 6.0127 3.88593
lowerback 5.28171 -3.41267 -5.77411
upperback 0.742661 -4.82164 2.64794
thorax -1.48022 -2.38548 6.27821
lowerneck -13.4857 -1.30373 -9.5758
upperneck 26.3685 -0.251044 2.9152
head 10.7455 -0.724719 2.64698
rclavicle -9.34288e-015 -7.95139e-015
rhumerus -41.8808 -24.1936 -66.9666
rradius 20.3741
rwrist 19.1383
rhand -12.8268 18.8522
rfingers 7.12502
rthumb 13.2601 -10.706
lclavicle -9.34288e-015 -7.95139e-015
lhumerus -24.2164 2.52313 80.7491
lradius 37.0938
lwrist -8.23345
lhand -18.5468 22.7736
lfingers 7.12502
lthumb 7.74263 52.6118
rfemur -31.7818 -1.23824 16.8604
rtibia 34.629
rfoot -5.34184 -7.1693
rtoes -8.24724
lfemur 17.7713 -7.27239 -25.7081
ltibia 22.1042
lfoot 1.28017 -5.11227
ltoes -27.5693
340
root -0.524277 17.2521 33.5849 -0.514206 5.7198 3.34296
lowerback 5.31933 -3.37113 -5.25696
upperback 0.669777 -4.7352 2.8355
thorax -1.61594 -2.33775 6.18604
lowerneck -13.7449 -1.25179 -9.51408
upperneck 26.5652 -0.15862 2.89872
head 10.8628 -0.683369 2.64718
rclavicle 3.56322e-014 9.54166e-015
rhumerus -42.0879 -24.3441 -66.5707
rradius 20.2813
rwrist 19.4466
rhand -12.9164 19.0099
rfingers 7.12502
rthumb 13.1738 -10.5539
lclavicle 3.56322e-014 9.54166e-015
lhumerus -24.6364 2.92408 80.8838
lradius 36.7651
lwrist -8.6194
lhand -18.4081 22.9912
lfingers 7.12502
lthumb 7.87645 52.8245
rfemur -31.3011 -1.45157 17.8035
rtibia 35.1172
rfoot -5.0558 -6.72675
rtoes -4.73881
lfemur 16.5171 -6.97412 -25.0042
ltibia 24.8682
lfoot 4.17088 -5.20477
ltoes -24.6614
341
root -0.550346 17.2774 33.8041 -0.572193 5.44168 3.05666
lowerback 5.37574 -3.29202 -5.06133
upperback 0.607595 -4.6183 2.96962
thorax -1.73315 -2.27454 6.21843
lowerneck -13.89 -1.28988 -9.58151
upperneck 26.6719 -0.167623 2.86001
head 10.9337 -0.701742 2.64574
rclavicle -5.41688e-015 9.54166e-015
rhumerus -42.1708 -24.2551 -66.3782
rradius 20.2662
rwrist 19.3316
rhand -12.8576 19.0515
rfingers 7.12502
rthumb 13.2305 -10.5087
lclavicle -5.41688e-015 9.54166e-015
lhumerus -25.0738 3.06527 81.0402
lradius 36.6877
lwrist -8.65366
lhand -17.8964 23.5282
lfingers 7.12502
lthumb 8.37032 53.3423
rfemur -30.9181 -1.57053 18.4608
rtibia 35.6758
rfoot -5.23755 -6.3698
rtoes -2.81473
lfemur 15.1879 -6.68375 -24.5186
ltibia 27.4498
lfoot 7.07946 -5.48591
ltoes -22.2568
342
root -0.577856 17.2853 34.0122 -0.611128 5.1939 3.08607
lowerback 5.29183 -3.18112 -5.20905
upperback 0.684508 -4.47455 3.00075
thorax -1.61308 -2.20827 6.31864
lowerneck -13.8811 -1.38896 -9.73071
upperneck 26.3458 -0.28543 2.90736
head 10.8197 -0.75497 2.66667
rclavicle 3.21037e-014 1.74931e-014
rhumerus -41.9747 -24.1829 -66.4044
rradius 20.2986
rwrist 18.9439
rhand -12.8931 18.7675
rfingers 7.12502
rthumb 13.1962 -10.7949
lclavicle 3.21037e-014 1.74931e-014
lhumerus -25.3282 3.13883 81.2659
lradius 36.4012
lwrist -8.65743
lhand -18.6349 21.8023
lfingers 7.12502
lthumb 7.65754 51.6437
rfemur -30.5863 -1.59259 18.712
rtibia 36.2716
rfoot -5.603 -5.97835
rtoes -1.73539
lfemur 13.98 -6.25984 -24.3393
ltibia 29.8756
lfoot 9.84913 -6.22059
ltoes -22.4683
343
root -0.611941 17.2862 34.2199 -0.718964 4.78881 2.66893
lowerback 5.23357 -3.03468 -4.95649
upperback 0.819216 -4.25977 3.09516
thorax -1.48346 -2.11006 6.25538
lowerneck -14.1356 -1.46238 -9.6083
upperneck 26.2332 -0.395792 2.91748
head 10.8344 -0.787772 2.63392
rclavicle -1.6201e-014 -1.03368e-014
rhumerus -41.7851 -24.4613 -66.4009
rradius 20.2743
rwrist 18.9491
rhand -12.7037 18.5882
rfingers 7.12502
rthumb 13.3788 -10.9622
lclavicle -1.6201e-014 -1.03368e-014
lhumerus -25.5306 3.1879 81.3722
lradius 36.2711
lwrist -8.2757
lhand -19.2421 20.9411
lfingers 7.12502
lthumb 7.07142 50.803
rfemur -30.1079 -1.07349 19.4097
rtibia 36.7354
rfoot -5.85652 -6.10461
rtoes 0.851334
lfemur 12.8943 -5.64794 -23.6565
ltibia 32.2949
lfoot 12.3377 -7.6813
ltoes -23.52
344
root -0.638391 17.3064 34.4304 -0.877353 4.38901 2.10363
lowerback 5.2819 -2.85748 -4.40022
upperback 0.901739 -3.99078 3.21756
thorax -1.49322 -1.97901 6.05616
lowerneck -14.3915 -1.47352 -9.5762
upperneck 26.2466 -0.43518 3.0787
head 10.8907 -0.782124 2.68334
rclavicle 3.3197e-014 -2.06736e-014
rhumerus -41.6418 -24.419 -66.4951
rradius 20.3089
rwrist 18.547
rhand -12.5312 18.0171
rfingers 7.12502
rthumb 13.5451 -11.5223
lclavicle 3.3197e-014 -2.06736e-014
lhumerus -25.9003 3.35235 81.5562
lradius 36.5589
lwrist -7.90918
lhand -18.3171 22.2651
lfingers 7.12502
lthumb 7.9643 52.0951
rfemur -29.3731 -0.555584 20.2358
rtibia 37.0515
rfoot -6.19145 -6.47706
rtoes 2.72615
lfemur 11.7038 -5.19889 -22.8632
ltibia 34.7379
lfoot 15.0561 -8.84872
ltoes -22.2416
345
root -0.662439 17.3401 34.6421 -1.08173 4.12446 1.61271
lowerback 5.23654 -2.73208 -3.90239
upperback 1.06738 -3.79272 3.31571
thorax -1.3495 -1.88955 5.85793
lowerneck -14.4407 -1.47455 -9.67169
upperneck 25.9786 -0.480288 3.34851
head 10.802 -0.771404 2.78731
rclavicle 3.22528e-014 -3.97569e-015
rhumerus -41.4267 -24.2902 -66.747
rradius 20.6124
rwrist 17.9329
rhand -12.5308 17.6497
rfingers 7.12502
rthumb 13.5455 -11.8897
lclavicle 3.22528e-014 -3.97569e-015
lhumerus -26.3265 3.41107 81.7553
lradius 36.942
lwrist -7.9834
lhand -17.6566 23.0658
lfingers 7.12502
lthumb 8.60169 52.8706
rfemur -28.4265 -0.38276 20.999
rtibia 37.165
rfoot -6.60148 -6.60698
rtoes 2.88859
lfemur 10.4347 -5.07878 -22.2315
ltibia 37.1929
lfoot 18.1939 -9.33726
ltoes -19.5776
346
root -0.68975 17.3606 34.8468 -1.14794 3.93865 1.32772
lowerback 5.38444 -2.63536 -3.71312
upperback 0.894506 -3.65381 3.40779
thorax -1.63488 -1.80825 5.85609
lowerneck -14.0894 -1.44203 -9.6236
upperneck 25.8583 -0.469337 3.28709
head 10.6873 -0.767261 2.75474
rclavicle 7.15625e-015 2.46493e-014
rhumerus -41.6402 -23.7439 -66.8764
rradius 21.0072
rwrist 17.3383
rhand -12.765 17.5685
rfingers 7.12502
rthumb 13.3197 -11.9858
lclavicle 7.15625e-015 2.46493e-014
lhumerus -27.1121 3.38983 82.0402
lradius 36.9595
lwrist -8.16958
lhand -17.8049 22.6796
lfingers 7.12502
lthumb 8.45866 52.4902
rfemur -27.6104 -0.0967377 21.504
rtibia 37.1234
rfoot -7.07603 -6.66415
rtoes 3.19186
lfemur 9.0201 -5.03455 -21.7909
ltibia 39.62
lfoot 21.609 -9.51195
ltoes -16.9868
347
root -0.708244 17.3919 35.0584 -1.34812 3.84826 1.13087
lowerback 5.7905 -2.5513 -3.46227
upperback 0.64769 -3.53273 3.41721
thorax -2.14759 -1.72846 5.75077
lowerneck -13.8094 -1.44877 -9.57262
upperneck 26.0376 -0.511454 3.24358
head 10.7018 -0.792954 2.72725
rclavicle -4.52235e-015 2.14687e-014
rhumerus -41.9633 -23.0135 -67.0437
rradius 21.3171
rwrist 16.745
rhand -12.8627 17.3216
rfingers 7.12502
rthumb 13.2256 -12.2389
lclavicle -4.52235e-015 2.14687e-014
lhumerus -27.881 2.9818 82.3417
lradius 36.7143
lwrist -7.88167
lhand -17.7004 23.1318
lfingers 7.12502
lthumb 8.55944 52.9383
rfemur -26.5295 -0.02025 21.8803
rtibia 36.9007
rfoot -7.57666 -6.52915
rtoes 4.36133
lfemur 7.79722 -5.06147 -21.4994
ltibia 41.936
lfoot 25.3894 -9.20748
ltoes -13.9557
348
root -0.726032 17.4355 35.2719 -1.62956 3.77928 0.837679
lowerback 5.92666 -2.48925 -3.08659
upperback 0.751026 -3.42858 3.41673
thorax -2.15182 -1.68091 5.53456
lowerneck -13.9393 -1.49382 -9.49878
upperneck 26.1262 -0.605889 3.3382
head 10.7658 -0.819168 2.73897
rclavicle 2.22639e-014 3.02153e-014
rhumerus -41.6121 -22.5577 -67.5032
rradius 21.413
rwrist 16.117
rhand -12.9434 17.1146
rfingers 7.12502
rthumb 13.1477 -12.4509
lclavicle 2.22639e-014 3.02153e-014
lhumerus -28.2828 2.69856 82.6055
lradius 36.7196
lwrist -7.62577
lhand -17.6505 23.7047
lfingers 7.12502
lthumb 8.60759 53.5092
rfemur -25.3106 0.104448 22.3527
rtibia 36.6022
rfoot -7.87432 -6.6415
rtoes 4.69515
lfemur 6.57463 -5.02841 -21.1003
ltibia 44.2003
lfoot 29.1662 -9.04702
ltoes -12.4666
349
root -0.745237 17.4884 35.4762 -1.7257 3.59958 0.398004
lowerback 5.87812 -2.42878 -2.66414
upperback 0.910639 -3.31891 3.53719
thorax -1.98942 -1.63592 5.4055
lowerneck -14.1844 -1.5626 -9.61454
upperneck 25.9852 -0.700751 3.53697
head 10.7686 -0.844937 2.81661
rclavicle -5.26779e-014 2.94201e-014
rhumerus -40.9425 -22.3121 -67.8353
rradius 21.337
rwrist 15.8591
rhand -12.9019 17.3596
rfingers 7.12502
rthumb 13.1878 -12.2033
lclavicle -5.26779e-014 2.94201e-014
lhumerus -28.4995 2.79318 82.8939
lradius 36.6742
lwrist -7.74596
lhand -17.3888 23.8668
lfingers 7.12502
lthumb 8.86019 53.6608
rfemur -24.2389 0.382163 22.9871
rtibia 36.1854
rfoot -8.14062 -6.98012
rtoes 4.33055
lfemur 5.18186 -4.947 -20.5189
ltibia 46.3899
lfoot 32.2526 -8.93767
ltoes -10.8396
350
root -0.765408 17.5152 35.6696 -1.81062 3.34802 -0.091594
lowerback 5.88152 -2.34403 -2.20256
upperback 1.00861 -3.1756 3.63794
thorax -1.92573 -1.56986 5.23678
lowerneck -14.1101 -1.66867 -9.72199
upperneck 25.6651 -0.869573 3.67814
head 10.6488 -0.907839 2.8575
rclavicle 5.91384e-015 1.59028e-014
rhumerus -40.3247 -22.3418 -68.0146
rradius 21.08
rwrist 15.9471
rhand -12.9599 17.777
rfingers 7.12502
rthumb 13.1319 -11.7895
lclavicle 5.91384e-015 1.59028e-014
lhumerus -28.5359 2.68841 83.1369
lradius 36.1711
lwrist -7.7478
lhand -17.3967 23.7631
lfingers 7.12502
lthumb 8.85253 53.5574
rfemur -23.1728 0.707558 23.6932
rtibia 35.7025
rfoot -8.59034 -7.1972
rtoes 4.13868
lfemur 3.67021 -4.68051 -19.8325
ltibia 48.6276
lfoot 34.1371 -9.10325
ltoes -7.62062
